<?xml version="1.0" encoding="UTF-8"?>
<svg xmlns="http://www.w3.org/2000/svg" viewBox="0 0 800 500" width="800" height="500">
  <defs>
    <radialGradient id="bg4" cx="50%" cy="48%" r="72%">
      <stop offset="0%" stop-color="#FFFFFF"/>
      <stop offset="60%" stop-color="#F4F4F6"/>
      <stop offset="100%" stop-color="#E8E8ED"/>
    </radialGradient>
    <!-- Matte black card -->
    <linearGradient id="cg4" x1="0%" y1="0%" x2="100%" y2="100%">
      <stop offset="0%" stop-color="#2C2C2E"/>
      <stop offset="45%" stop-color="#1C1C1E"/>
      <stop offset="100%" stop-color="#0D0D0F"/>
    </linearGradient>
    <radialGradient id="hl4" cx="28%" cy="22%" r="60%">
      <stop offset="0%" stop-color="#FFFFFF" stop-opacity="0.06"/>
      <stop offset="100%" stop-color="#FFFFFF" stop-opacity="0"/>
    </radialGradient>
    <linearGradient id="chip4" x1="0%" y1="0%" x2="100%" y2="100%">
      <stop offset="0%" stop-color="#FEF3C7"/>
      <stop offset="25%" stop-color="#FCD34D"/>
      <stop offset="60%" stop-color="#D97706"/>
      <stop offset="100%" stop-color="#92400E"/>
    </linearGradient>
    <filter id="sh4" x="-20%" y="-22%" width="140%" height="160%">
      <feGaussianBlur in="SourceAlpha" stdDeviation="18" result="b"/>
      <feOffset in="b" dx="0" dy="20" result="o"/>
      <feColorMatrix in="o" type="matrix" values="0 0 0 0 0 0 0 0 0 0 0 0 0 0 0 0 0 0 0.22 0" result="c"/>
      <feMerge><feMergeNode in="c"/><feMergeNode in="SourceGraphic"/></feMerge>
    </filter>
    <pattern id="tex4" x="0" y="0" width="6" height="6" patternUnits="userSpaceOnUse">
      <circle cx="3" cy="3" r="0.5" fill="white" opacity="0.04"/>
    </pattern>
  </defs>

  <rect width="800" height="500" fill="url(#bg4)"/>
  <ellipse cx="400" cy="444" rx="190" ry="11" fill="black" opacity="0.08"/>

  <!-- ── MATTE BLACK CARD — flat, centered, very subtle tilt ── -->
  <g transform="translate(400,246) rotate(-2)" filter="url(#sh4)">
    <rect x="-190" y="-122" width="380" height="244" rx="18" fill="url(#cg4)"/>
    <rect x="-190" y="-122" width="380" height="244" rx="18" fill="url(#tex4)"/>
    <rect x="-190" y="-122" width="380" height="244" rx="18" fill="url(#hl4)"/>
    <rect x="-190" y="-122" width="380" height="5" rx="2" fill="white" opacity="0.13"/>

    <!-- Chip -->
    <g transform="translate(-136,-74)">
      <rect x="0" y="0" width="44" height="35" rx="5" fill="url(#chip4)"/>
      <line x1="14" y1="0" x2="14" y2="35" stroke="#92400E" stroke-width="0.8" opacity="0.38"/>
      <line x1="30" y1="0" x2="30" y2="35" stroke="#92400E" stroke-width="0.8" opacity="0.38"/>
      <line x1="0" y1="11" x2="44" y2="11" stroke="#92400E" stroke-width="0.8" opacity="0.38"/>
      <line x1="0" y1="24" x2="44" y2="24" stroke="#92400E" stroke-width="0.8" opacity="0.38"/>
      <ellipse cx="22" cy="17" rx="9" ry="7" fill="none" stroke="#92400E" stroke-width="0.6" opacity="0.30"/>
    </g>
    <!-- Contactless -->
    <g transform="translate(-70,-62)" opacity="0.70">
      <circle cx="0" cy="12" r="3.5" fill="white"/>
      <path d="M-12,5 Q0,-7 12,5" fill="none" stroke="white" stroke-width="2.2" stroke-linecap="round"/>
      <path d="M-19,-1 Q0,-16 19,-1" fill="none" stroke="white" stroke-width="1.8" stroke-linecap="round" opacity="0.68"/>
      <path d="M-26,-7 Q0,-25 26,-7" fill="none" stroke="white" stroke-width="1.5" stroke-linecap="round" opacity="0.42"/>
    </g>

    <text x="-174" y="-98" font-family="'Arial Black','Arial',Helvetica,sans-serif" font-size="10.5" font-weight="900" fill="white" opacity="0.85">FindCard</text>
    <rect x="-104" y="-110" width="28" height="14" rx="7" fill="white" opacity="0.13"/>
    <text x="-90" y="-100" font-family="'Arial',Helvetica,sans-serif" font-size="7.5" font-weight="800" fill="white" opacity="0.75" text-anchor="middle">PRO</text>

    <text x="14" y="16" font-family="'Arial Black','Arial',Helvetica,sans-serif" font-weight="900" font-size="40" fill="white" letter-spacing="-1" text-anchor="middle" opacity="0.95">FindCard</text>

    <circle cx="-160" cy="50" r="2.8" fill="white" opacity="0.28"/>
    <circle cx="-150" cy="50" r="2.8" fill="white" opacity="0.28"/>
    <circle cx="-140" cy="50" r="2.8" fill="white" opacity="0.28"/>
    <circle cx="-130" cy="50" r="2.8" fill="white" opacity="0.28"/>
    <circle cx="-112" cy="50" r="2.8" fill="white" opacity="0.28"/>
    <circle cx="-102" cy="50" r="2.8" fill="white" opacity="0.28"/>
    <circle cx="-92" cy="50" r="2.8" fill="white" opacity="0.28"/>
    <circle cx="-82" cy="50" r="2.8" fill="white" opacity="0.28"/>
    <circle cx="-64" cy="50" r="2.8" fill="white" opacity="0.28"/>
    <circle cx="-54" cy="50" r="2.8" fill="white" opacity="0.28"/>
    <circle cx="-44" cy="50" r="2.8" fill="white" opacity="0.28"/>
    <circle cx="-34" cy="50" r="2.8" fill="white" opacity="0.28"/>

    <line x1="-174" y1="70" x2="174" y2="70" stroke="white" stroke-width="0.4" opacity="0.10"/>
    <text x="-174" y="87" font-family="'Arial',Helvetica,sans-serif" font-size="8.5" font-weight="600" fill="white" opacity="0.50">FINDCARD PRO</text>
    <text x="-174" y="100" font-family="'Arial',Helvetica,sans-serif" font-size="7" fill="white" opacity="0.32">Apple Find My  ·  Bluetooth 5.1  ·  1.8mm  ·  IP67  ·  8-Month Battery</text>
    <rect x="136" y="90" width="46" height="20" rx="5" fill="white" opacity="0.10"/>
    <text x="159" y="104" font-family="'Arial',Helvetica,sans-serif" font-size="9" font-weight="700" fill="white" opacity="0.70" text-anchor="middle">MFi ✓</text>
  </g>

  <!-- ══ CALLOUT LINES + LABELS ══ -->

  <!-- Apple Find My — TOP -->
  <line x1="400" y1="124" x2="400" y2="60" stroke="#2563EB" stroke-width="1.3" stroke-dasharray="4,3"/>
  <circle cx="400" cy="124" r="3.8" fill="#2563EB"/>
  <rect x="316" y="24" width="168" height="34" rx="10" fill="#2563EB"/>
  <text x="400" y="40" font-family="'Arial',Helvetica,sans-serif" font-size="10.5" font-weight="700" fill="white" text-anchor="middle">📡 Apple Find My</text>
  <text x="400" y="53" font-family="'Arial',Helvetica,sans-serif" font-size="9" fill="#BFDBFE" text-anchor="middle">מאות מיליוני מכשירי Apple</text>

  <!-- Bluetooth — TOP RIGHT -->
  <line x1="572" y1="154" x2="632" y2="128" stroke="#1D4ED8" stroke-width="1.3" stroke-dasharray="4,3"/>
  <circle cx="572" cy="154" r="3.8" fill="#1D4ED8"/>
  <rect x="630" y="106" width="138" height="34" rx="10" fill="#1D4ED8"/>
  <text x="699" y="122" font-family="'Arial',Helvetica,sans-serif" font-size="10.5" font-weight="700" fill="white" text-anchor="middle">🔵 Bluetooth 5.1</text>
  <text x="699" y="135" font-family="'Arial',Helvetica,sans-serif" font-size="9" fill="#BFDBFE" text-anchor="middle">עד 90 מ׳ ישיר · בכל מקום דרך Find My</text>

  <!-- Thickness — RIGHT -->
  <line x1="594" y1="246" x2="642" y2="246" stroke="#2563EB" stroke-width="1.3" stroke-dasharray="4,3"/>
  <circle cx="594" cy="246" r="3.8" fill="#2563EB"/>
  <line x1="642" y1="232" x2="642" y2="260" stroke="#2563EB" stroke-width="2"/>
  <line x1="642" y1="232" x2="636" y2="232" stroke="#2563EB" stroke-width="2"/>
  <line x1="642" y1="260" x2="636" y2="260" stroke="#2563EB" stroke-width="2"/>
  <rect x="646" y="228" width="124" height="34" rx="10" fill="#2563EB"/>
  <text x="708" y="244" font-family="'Arial',Helvetica,sans-serif" font-size="10.5" font-weight="700" fill="white" text-anchor="middle">עובי 1.8מ"מ</text>
  <text x="708" y="257" font-family="'Arial',Helvetica,sans-serif" font-size="9" fill="#BFDBFE" text-anchor="middle">נכנס לכל ארנק, לא מרגישים אותו</text>

  <!-- Battery — BOTTOM RIGHT -->
  <line x1="506" y1="368" x2="554" y2="406" stroke="#1D4ED8" stroke-width="1.3" stroke-dasharray="4,3"/>
  <circle cx="506" cy="368" r="3.8" fill="#1D4ED8"/>
  <rect x="488" y="408" width="152" height="34" rx="10" fill="#1D4ED8"/>
  <text x="564" y="424" font-family="'Arial',Helvetica,sans-serif" font-size="10.5" font-weight="700" fill="white" text-anchor="middle">🔋 8 חודשי סוללה</text>
  <text x="564" y="437" font-family="'Arial',Helvetica,sans-serif" font-size="9" fill="#BFDBFE" text-anchor="middle">טוענים אלחוטית אחת ל-8 חודשים</text>

  <!-- IP67 — BOTTOM LEFT -->
  <line x1="294" y1="368" x2="246" y2="406" stroke="#2563EB" stroke-width="1.3" stroke-dasharray="4,3"/>
  <circle cx="294" cy="368" r="3.8" fill="#2563EB"/>
  <rect x="86" y="408" width="130" height="34" rx="10" fill="#2563EB"/>
  <text x="151" y="424" font-family="'Arial',Helvetica,sans-serif" font-size="10.5" font-weight="700" fill="white" text-anchor="middle">🌊 עמידות IP67</text>
  <text x="151" y="437" font-family="'Arial',Helvetica,sans-serif" font-size="9" fill="#BFDBFE" text-anchor="middle">עד 1 מטר / 30 דקות</text>

  <!-- NFC/Qi — LEFT -->
  <line x1="208" y1="204" x2="154" y2="186" stroke="#2563EB" stroke-width="1.3" stroke-dasharray="4,3"/>
  <circle cx="208" cy="204" r="3.8" fill="#2563EB"/>
  <rect x="10" y="166" width="144" height="34" rx="10" fill="#2563EB"/>
  <text x="82" y="182" font-family="'Arial',Helvetica,sans-serif" font-size="10.5" font-weight="700" fill="white" text-anchor="middle">טעינה אלחוטית</text>
  <text x="82" y="195" font-family="'Arial',Helvetica,sans-serif" font-size="9" fill="#BFDBFE" text-anchor="middle">Qi + NFC</text>
</svg>
