<?xml version="1.0" encoding="UTF-8"?>
<svg xmlns="http://www.w3.org/2000/svg" viewBox="0 0 800 504" width="800" height="504">
  <defs>
    <linearGradient id="p2bg" x1="0%" y1="0%" x2="100%" y2="100%">
      <stop offset="0%" stop-color="#F8FAFF"/>
      <stop offset="100%" stop-color="#EEF2FF"/>
    </linearGradient>
    <linearGradient id="p2card" x1="0%" y1="0%" x2="100%" y2="100%">
      <stop offset="0%" stop-color="#1E3A8A"/>
      <stop offset="50%" stop-color="#2563EB"/>
      <stop offset="100%" stop-color="#3730A3"/>
    </linearGradient>
    <radialGradient id="p2shine" cx="27%" cy="22%" r="56%">
      <stop offset="0%" stop-color="#FFFFFF" stop-opacity="0.20"/>
      <stop offset="100%" stop-color="#FFFFFF" stop-opacity="0"/>
    </radialGradient>
    <linearGradient id="p2chip" x1="0%" y1="0%" x2="100%" y2="100%">
      <stop offset="0%" stop-color="#FDE68A"/>
      <stop offset="100%" stop-color="#B45309"/>
    </linearGradient>
    <linearGradient id="p2wallet" x1="0%" y1="0%" x2="100%" y2="100%">
      <stop offset="0%" stop-color="#3D2B1F"/>
      <stop offset="50%" stop-color="#2A1B10"/>
      <stop offset="100%" stop-color="#1A0E06"/>
    </linearGradient>
    <radialGradient id="p2walletShine" cx="25%" cy="20%" r="55%">
      <stop offset="0%" stop-color="#5C3D2E" stop-opacity="1"/>
      <stop offset="100%" stop-color="#1A0E06" stop-opacity="1"/>
    </radialGradient>
    <filter id="p2walletShadow" x="-18%" y="-15%" width="136%" height="145%">
      <feGaussianBlur in="SourceAlpha" stdDeviation="18" result="blur"/>
      <feOffset in="blur" dx="4" dy="18" result="off"/>
      <feColorMatrix type="matrix" in="off"
        values="0 0 0 0 0.06  0 0 0 0 0.03  0 0 0 0 0  0 0 0 0.42 0" result="col"/>
      <feMerge>
        <feMergeNode in="col"/>
        <feMergeNode in="SourceGraphic"/>
      </feMerge>
    </filter>
    <filter id="p2cardShadow" x="-20%" y="-20%" width="140%" height="140%">
      <feGaussianBlur in="SourceAlpha" stdDeviation="12" result="blur"/>
      <feOffset in="blur" dx="0" dy="-6" result="off"/>
      <feColorMatrix type="matrix" in="off"
        values="0 0 0 0 0.1  0 0 0 0 0.2  0 0 0 0 0.55  0 0 0 0.35 0" result="col"/>
      <feMerge>
        <feMergeNode in="col"/>
        <feMergeNode in="SourceGraphic"/>
      </feMerge>
    </filter>
  </defs>

  <rect width="800" height="504" fill="url(#p2bg)"/>
  <ellipse cx="140" cy="130" rx="180" ry="120" fill="#C7D2FE" opacity="0.22"/>
  <ellipse cx="660" cy="380" rx="160" ry="110" fill="#BFDBFE" opacity="0.2"/>

  <!-- Card (rendered first, bottom portion will be covered by wallet) -->
  <g filter="url(#p2cardShadow)">
    <rect x="196" y="62" width="408" height="257" rx="20" fill="url(#p2card)"/>
    <rect x="196" y="62" width="408" height="257" rx="20" fill="url(#p2shine)"/>
    <circle cx="604" cy="62" r="80" fill="none" stroke="white" stroke-width="44" opacity="0.04"/>
    <circle cx="604" cy="62" r="140" fill="none" stroke="white" stroke-width="44" opacity="0.03"/>

    <!-- Chip -->
    <g transform="translate(216,100)">
      <rect width="55" height="44" rx="6" fill="url(#p2chip)"/>
      <rect width="55" height="17" rx="6" fill="white" opacity="0.22"/>
      <line x1="0" y1="14" x2="55" y2="14" stroke="#92400E" stroke-width="0.8" opacity="0.4"/>
      <line x1="0" y1="30" x2="55" y2="30" stroke="#92400E" stroke-width="0.8" opacity="0.4"/>
      <line x1="18" y1="0" x2="18" y2="44" stroke="#92400E" stroke-width="0.8" opacity="0.4"/>
      <line x1="37" y1="0" x2="37" y2="44" stroke="#92400E" stroke-width="0.8" opacity="0.4"/>
    </g>

    <!-- NFC -->
    <g transform="translate(286,108)" opacity="0.85">
      <circle cx="0" cy="20" r="3" fill="white"/>
      <path d="M8,9 Q21,-6 34,9" fill="none" stroke="white" stroke-width="2.1" stroke-linecap="round"/>
      <path d="M2,3 Q21,-16 40,3" fill="none" stroke="white" stroke-width="2.1" stroke-linecap="round"/>
      <path d="M-4,-3 Q21,-23 46,-3" fill="none" stroke="white" stroke-width="2.1" stroke-linecap="round"/>
    </g>

    <text x="216" y="92" font-family="Arial,Helvetica,sans-serif" font-size="10" font-weight="700" fill="#93C5FD" letter-spacing="4">FINDCARD</text>

    <rect x="328" y="70" width="42" height="19" rx="9.5" fill="white" opacity="0.92"/>
    <text x="349" y="83.5" font-family="Arial,Helvetica,sans-serif" font-size="9" font-weight="800" fill="#1E40AF" text-anchor="middle">PRO</text>

    <!-- Big logo -->
    <text x="210" y="220" font-family="Arial Black,Arial,Helvetica,sans-serif" font-weight="900" font-size="68" fill="#93C5FD" letter-spacing="-2">Find</text>
    <text x="418" y="220" font-family="Arial Black,Arial,Helvetica,sans-serif" font-weight="900" font-size="68" fill="white" letter-spacing="-2">Card</text>

    <text x="210" y="300" font-family="Arial,Helvetica,sans-serif" font-size="10.5" fill="#93C5FD" opacity="0.88">Apple Find My  ·  1.8mm  ·  IP67  ·  8-Month Battery</text>
  </g>

  <!-- Wallet body covers bottom ~40% of card + extends down -->
  <g filter="url(#p2walletShadow)">
    <!-- Main wallet body -->
    <rect x="176" y="246" width="448" height="200" rx="18" fill="url(#p2walletShine)"/>

    <!-- Stitching border -->
    <rect x="185" y="255" width="430" height="182" rx="13" fill="none" stroke="#5C3D2E" stroke-width="1.5" stroke-dasharray="7,5"/>

    <!-- Card slot opening at top of wallet (dark slit) -->
    <rect x="196" y="240" width="408" height="18" rx="5" fill="#0D0604"/>
    <rect x="196" y="248" width="408" height="5" fill="#1A0E06"/>
    <!-- Subtle shadow inside slot -->
    <rect x="196" y="253" width="408" height="4" fill="black" opacity="0.28"/>

    <!-- Leather grain lines -->
    <line x1="186" y1="290" x2="614" y2="290" stroke="#4B3420" stroke-width="0.6" opacity="0.35"/>
    <line x1="186" y1="318" x2="614" y2="318" stroke="#4B3420" stroke-width="0.6" opacity="0.28"/>
    <line x1="186" y1="346" x2="614" y2="346" stroke="#4B3420" stroke-width="0.6" opacity="0.22"/>
    <line x1="186" y1="374" x2="614" y2="374" stroke="#4B3420" stroke-width="0.6" opacity="0.18"/>
    <line x1="186" y1="402" x2="614" y2="402" stroke="#4B3420" stroke-width="0.6" opacity="0.14"/>

    <!-- Left highlight edge -->
    <rect x="176" y="246" width="4" height="200" rx="2" fill="white" opacity="0.05"/>

    <!-- FC monogram on wallet (subtle) -->
    <text x="400" y="365" font-family="Arial Black,Arial,sans-serif" font-weight="900" font-size="28" fill="#5C3D2E" text-anchor="middle" letter-spacing="3">FC</text>
  </g>

  <!-- Label -->
  <text x="400" y="476" font-family="Arial Black,Arial,Helvetica,sans-serif" font-weight="900" font-size="18" fill="#1E40AF" text-anchor="middle">דק בדיוק 1.8מ&quot;מ — נכנס לכל ארנק</text>
</svg>
