<?xml version="1.0" encoding="UTF-8"?>
<svg xmlns="http://www.w3.org/2000/svg" viewBox="0 0 800 500" width="800" height="500">
  <defs>
    <radialGradient id="bg3" cx="50%" cy="50%" r="68%">
      <stop offset="0%" stop-color="#1A1A1A"/>
      <stop offset="55%" stop-color="#0D0D0D"/>
      <stop offset="100%" stop-color="#050505"/>
    </radialGradient>
    <linearGradient id="cg3" x1="0%" y1="0%" x2="100%" y2="100%">
      <stop offset="0%" stop-color="#2C2C2E"/>
      <stop offset="45%" stop-color="#1C1C1E"/>
      <stop offset="100%" stop-color="#0D0D0F"/>
    </linearGradient>
    <radialGradient id="hl3" cx="28%" cy="22%" r="60%">
      <stop offset="0%" stop-color="#FFFFFF" stop-opacity="0.08"/>
      <stop offset="100%" stop-color="#FFFFFF" stop-opacity="0"/>
    </radialGradient>
    <linearGradient id="chip3" x1="0%" y1="0%" x2="100%" y2="100%">
      <stop offset="0%" stop-color="#FEF3C7"/>
      <stop offset="25%" stop-color="#FCD34D"/>
      <stop offset="60%" stop-color="#D97706"/>
      <stop offset="100%" stop-color="#92400E"/>
    </linearGradient>
    <!-- Ambient blue glow -->
    <radialGradient id="ambient" cx="50%" cy="52%" r="50%">
      <stop offset="0%" stop-color="#3B82F6" stop-opacity="0.14"/>
      <stop offset="100%" stop-color="#3B82F6" stop-opacity="0"/>
    </radialGradient>
    <!-- Subtle gold glow for center card -->
    <radialGradient id="goldGlow" cx="50%" cy="50%" r="60%">
      <stop offset="0%" stop-color="#FCD34D" stop-opacity="0.06"/>
      <stop offset="100%" stop-color="#FCD34D" stop-opacity="0"/>
    </radialGradient>
    <filter id="shL3" x="-30%" y="-35%" width="160%" height="210%">
      <feGaussianBlur in="SourceAlpha" stdDeviation="16" result="b"/>
      <feOffset in="b" dx="-4" dy="20" result="o"/>
      <feColorMatrix in="o" type="matrix" values="0 0 0 0 0 0 0 0 0 0 0 0 0 0 0 0 0 0 0.60 0" result="c"/>
      <feMerge><feMergeNode in="c"/><feMergeNode in="SourceGraphic"/></feMerge>
    </filter>
    <filter id="shR3" x="-30%" y="-35%" width="160%" height="210%">
      <feGaussianBlur in="SourceAlpha" stdDeviation="16" result="b"/>
      <feOffset in="b" dx="4" dy="20" result="o"/>
      <feColorMatrix in="o" type="matrix" values="0 0 0 0 0 0 0 0 0 0 0 0 0 0 0 0 0 0 0.60 0" result="c"/>
      <feMerge><feMergeNode in="c"/><feMergeNode in="SourceGraphic"/></feMerge>
    </filter>
    <filter id="shF3" x="-28%" y="-32%" width="156%" height="200%">
      <feGaussianBlur in="SourceAlpha" stdDeviation="24" result="b1"/>
      <feOffset in="b1" dx="0" dy="30" result="o1"/>
      <feColorMatrix in="o1" type="matrix" values="0 0 0 0 0 0 0 0 0 0 0 0 0 0 0 0 0 0 0.70 0" result="c1"/>
      <feMerge><feMergeNode in="c1"/><feMergeNode in="SourceGraphic"/></feMerge>
    </filter>
    <pattern id="tex3" x="0" y="0" width="6" height="6" patternUnits="userSpaceOnUse">
      <circle cx="3" cy="3" r="0.5" fill="white" opacity="0.04"/>
    </pattern>
  </defs>

  <!-- Background -->
  <rect width="800" height="500" fill="url(#bg3)"/>
  <!-- Ambient glow -->
  <ellipse cx="400" cy="270" rx="320" ry="210" fill="url(#ambient)"/>

  <!-- LEFT CARD (-26°) -->
  <g transform="translate(210,258) rotate(-26)" filter="url(#shL3)" opacity="0.78">
    <rect x="-188" y="-120" width="376" height="240" rx="18" fill="url(#cg3)"/>
    <rect x="-188" y="-120" width="376" height="240" rx="18" fill="url(#tex3)"/>
    <rect x="-188" y="-120" width="376" height="240" rx="18" fill="url(#hl3)"/>
    <!-- Top sheen -->
    <rect x="-188" y="-120" width="376" height="5" rx="2" fill="white" opacity="0.14"/>
    <!-- Chip -->
    <rect x="-168" y="-96" width="38" height="30" rx="4" fill="url(#chip3)" opacity="0.75"/>
    <line x1="-168" y1="-86" x2="-130" y2="-86" stroke="#92400E" stroke-width="0.7" opacity="0.4"/>
    <line x1="-168" y1="-76" x2="-130" y2="-76" stroke="#92400E" stroke-width="0.7" opacity="0.4"/>
    <line x1="-155" y1="-96" x2="-155" y2="-66" stroke="#92400E" stroke-width="0.7" opacity="0.4"/>
    <line x1="-144" y1="-96" x2="-144" y2="-66" stroke="#92400E" stroke-width="0.7" opacity="0.4"/>
    <!-- Card number dots -->
    <circle cx="-80" cy="30" r="3" fill="white" opacity="0.16"/>
    <circle cx="-66" cy="30" r="3" fill="white" opacity="0.16"/>
    <circle cx="-52" cy="30" r="3" fill="white" opacity="0.16"/>
    <circle cx="-38" cy="30" r="3" fill="white" opacity="0.16"/>
    <circle cx="-14" cy="30" r="3" fill="white" opacity="0.16"/>
    <circle cx="0" cy="30" r="3" fill="white" opacity="0.16"/>
    <circle cx="14" cy="30" r="3" fill="white" opacity="0.16"/>
    <circle cx="28" cy="30" r="3" fill="white" opacity="0.16"/>
    <!-- Separator -->
    <line x1="-168" y1="72" x2="168" y2="72" stroke="white" stroke-width="0.4" opacity="0.08"/>
  </g>

  <!-- RIGHT CARD (+22°) -->
  <g transform="translate(590,258) rotate(22)" filter="url(#shR3)" opacity="0.78">
    <rect x="-188" y="-120" width="376" height="240" rx="18" fill="url(#cg3)"/>
    <rect x="-188" y="-120" width="376" height="240" rx="18" fill="url(#tex3)"/>
    <rect x="-188" y="-120" width="376" height="240" rx="18" fill="url(#hl3)"/>
    <rect x="-188" y="-120" width="376" height="5" rx="2" fill="white" opacity="0.14"/>
    <!-- Chip -->
    <rect x="-168" y="-96" width="38" height="30" rx="4" fill="url(#chip3)" opacity="0.75"/>
    <line x1="-168" y1="-86" x2="-130" y2="-86" stroke="#92400E" stroke-width="0.7" opacity="0.4"/>
    <line x1="-168" y1="-76" x2="-130" y2="-76" stroke="#92400E" stroke-width="0.7" opacity="0.4"/>
    <line x1="-155" y1="-96" x2="-155" y2="-66" stroke="#92400E" stroke-width="0.7" opacity="0.4"/>
    <line x1="-144" y1="-96" x2="-144" y2="-66" stroke="#92400E" stroke-width="0.7" opacity="0.4"/>
    <!-- Card number dots -->
    <circle cx="-80" cy="30" r="3" fill="white" opacity="0.16"/>
    <circle cx="-66" cy="30" r="3" fill="white" opacity="0.16"/>
    <circle cx="-52" cy="30" r="3" fill="white" opacity="0.16"/>
    <circle cx="-38" cy="30" r="3" fill="white" opacity="0.16"/>
    <circle cx="-14" cy="30" r="3" fill="white" opacity="0.16"/>
    <circle cx="0" cy="30" r="3" fill="white" opacity="0.16"/>
    <circle cx="14" cy="30" r="3" fill="white" opacity="0.16"/>
    <circle cx="28" cy="30" r="3" fill="white" opacity="0.16"/>
    <line x1="-168" y1="72" x2="168" y2="72" stroke="white" stroke-width="0.4" opacity="0.08"/>
  </g>

  <!-- FRONT CARD (-5°) -->
  <g transform="translate(400,238) rotate(-5)" filter="url(#shF3)">
    <rect x="-214" y="-134" width="428" height="268" rx="20" fill="url(#cg3)"/>
    <rect x="-214" y="-134" width="428" height="268" rx="20" fill="url(#tex3)"/>
    <rect x="-214" y="-134" width="428" height="268" rx="20" fill="url(#hl3)"/>
    <rect x="-214" y="-134" width="428" height="268" rx="20" fill="url(#goldGlow)"/>
    <!-- Top sheen -->
    <rect x="-214" y="-134" width="428" height="6" rx="3" fill="white" opacity="0.16"/>
    <!-- Left edge sheen -->
    <rect x="-214" y="-128" width="2" height="262" fill="white" opacity="0.06"/>
    <!-- Chip -->
    <rect x="-194" y="-106" width="46" height="36" rx="6" fill="url(#chip3)"/>
    <line x1="-194" y1="-96" x2="-148" y2="-96" stroke="#92400E" stroke-width="0.8" opacity="0.55"/>
    <line x1="-194" y1="-85" x2="-148" y2="-85" stroke="#92400E" stroke-width="0.8" opacity="0.55"/>
    <line x1="-180" y1="-106" x2="-180" y2="-70" stroke="#92400E" stroke-width="0.8" opacity="0.55"/>
    <line x1="-167" y1="-106" x2="-167" y2="-70" stroke="#92400E" stroke-width="0.8" opacity="0.55"/>
    <!-- Contactless rings (top right) -->
    <circle cx="172" cy="-108" r="10" fill="none" stroke="white" stroke-width="1.8" opacity="0.28"/>
    <circle cx="172" cy="-108" r="18" fill="none" stroke="white" stroke-width="1.5" opacity="0.18"/>
    <circle cx="172" cy="-108" r="26" fill="none" stroke="white" stroke-width="1.2" opacity="0.10"/>
    <!-- Card number dots (4 groups of 4) -->
    <circle cx="-130" cy="30" r="3.8" fill="white" opacity="0.22"/>
    <circle cx="-113" cy="30" r="3.8" fill="white" opacity="0.22"/>
    <circle cx="-96" cy="30" r="3.8" fill="white" opacity="0.22"/>
    <circle cx="-79" cy="30" r="3.8" fill="white" opacity="0.22"/>
    <circle cx="-50" cy="30" r="3.8" fill="white" opacity="0.22"/>
    <circle cx="-33" cy="30" r="3.8" fill="white" opacity="0.22"/>
    <circle cx="-16" cy="30" r="3.8" fill="white" opacity="0.22"/>
    <circle cx="1" cy="30" r="3.8" fill="white" opacity="0.22"/>
    <circle cx="30" cy="30" r="3.8" fill="white" opacity="0.22"/>
    <circle cx="47" cy="30" r="3.8" fill="white" opacity="0.22"/>
    <circle cx="64" cy="30" r="3.8" fill="white" opacity="0.22"/>
    <circle cx="81" cy="30" r="3.8" fill="white" opacity="0.22"/>
    <circle cx="110" cy="30" r="3.8" fill="white" opacity="0.22"/>
    <circle cx="127" cy="30" r="3.8" fill="white" opacity="0.22"/>
    <circle cx="144" cy="30" r="3.8" fill="white" opacity="0.22"/>
    <circle cx="161" cy="30" r="3.8" fill="white" opacity="0.22"/>
    <!-- Separator line -->
    <line x1="-194" y1="84" x2="194" y2="84" stroke="white" stroke-width="0.5" opacity="0.12"/>
    <!-- Name placeholder -->
    <rect x="-194" y="96" width="150" height="9" rx="4.5" fill="white" opacity="0.10"/>
    <!-- Validity -->
    <rect x="-194" y="113" width="90" height="9" rx="4.5" fill="white" opacity="0.08"/>
    <!-- Hologram -->
    <circle cx="170" cy="108" r="22" fill="none" stroke="white" stroke-width="1" opacity="0.08"/>
    <circle cx="170" cy="108" r="14" fill="none" stroke="white" stroke-width="0.8" opacity="0.06"/>
    <circle cx="170" cy="108" r="6" fill="white" opacity="0.04"/>
  </g>
</svg>
