<?xml version="1.0" encoding="UTF-8"?>
<svg xmlns="http://www.w3.org/2000/svg" viewBox="0 0 800 504" width="800" height="504">
  <defs>
    <radialGradient id="p4bg" cx="50%" cy="50%" r="65%">
      <stop offset="0%" stop-color="#F0F7FF"/>
      <stop offset="100%" stop-color="#E8EEFF"/>
    </radialGradient>
    <linearGradient id="p4card" x1="0%" y1="0%" x2="100%" y2="100%">
      <stop offset="0%" stop-color="#1E3A8A"/>
      <stop offset="50%" stop-color="#2563EB"/>
      <stop offset="100%" stop-color="#3730A3"/>
    </linearGradient>
    <radialGradient id="p4shine" cx="27%" cy="22%" r="56%">
      <stop offset="0%" stop-color="#FFFFFF" stop-opacity="0.20"/>
      <stop offset="100%" stop-color="#FFFFFF" stop-opacity="0"/>
    </radialGradient>
    <linearGradient id="p4chip" x1="0%" y1="0%" x2="100%" y2="100%">
      <stop offset="0%" stop-color="#FDE68A"/>
      <stop offset="100%" stop-color="#B45309"/>
    </linearGradient>
    <filter id="p4shadow" x="-20%" y="-20%" width="140%" height="160%">
      <feGaussianBlur in="SourceAlpha" stdDeviation="16" result="blur"/>
      <feOffset in="blur" dx="0" dy="18" result="off"/>
      <feColorMatrix type="matrix" in="off"
        values="0 0 0 0 0.1  0 0 0 0 0.2  0 0 0 0 0.55  0 0 0 0.32 0" result="col"/>
      <feMerge>
        <feMergeNode in="col"/>
        <feMergeNode in="SourceGraphic"/>
      </feMerge>
    </filter>
  </defs>

  <rect width="800" height="504" fill="url(#p4bg)"/>

  <!-- Card (face-up, centered, slight scale for annotation space) -->
  <g transform="translate(400,242)" filter="url(#p4shadow)">
    <rect x="-200" y="-126" width="400" height="252" rx="18" fill="url(#p4card)"/>
    <rect x="-200" y="-126" width="400" height="252" rx="18" fill="url(#p4shine)"/>
    <circle cx="200" cy="-126" r="72" fill="none" stroke="white" stroke-width="40" opacity="0.04"/>

    <!-- Chip -->
    <g transform="translate(-160,-83)">
      <rect width="52" height="41" rx="6" fill="url(#p4chip)"/>
      <rect width="52" height="16" rx="6" fill="white" opacity="0.22"/>
      <line x1="0" y1="13" x2="52" y2="13" stroke="#92400E" stroke-width="0.8" opacity="0.4"/>
      <line x1="0" y1="27" x2="52" y2="27" stroke="#92400E" stroke-width="0.8" opacity="0.4"/>
      <line x1="17" y1="0" x2="17" y2="41" stroke="#92400E" stroke-width="0.8" opacity="0.4"/>
      <line x1="35" y1="0" x2="35" y2="41" stroke="#92400E" stroke-width="0.8" opacity="0.4"/>
    </g>

    <!-- NFC -->
    <g transform="translate(-91,-70)" opacity="0.88">
      <circle cx="0" cy="19" r="3" fill="white"/>
      <path d="M7,9 Q19,-5 31,9" fill="none" stroke="white" stroke-width="2" stroke-linecap="round"/>
      <path d="M2,3 Q19,-14 36,3" fill="none" stroke="white" stroke-width="2" stroke-linecap="round"/>
      <path d="M-3,-3 Q19,-21 41,-3" fill="none" stroke="white" stroke-width="2" stroke-linecap="round"/>
    </g>

    <text x="-144" y="-88" font-family="Arial,sans-serif" font-size="9.5" font-weight="700" fill="#93C5FD" letter-spacing="4">FINDCARD</text>
    <rect x="-52" y="-108" width="40" height="18" rx="9" fill="white" opacity="0.92"/>
    <text x="-32" y="-96" font-family="Arial,sans-serif" font-size="8.5" font-weight="800" fill="#1E40AF" text-anchor="middle">PRO</text>

    <text x="-185" y="42" font-family="Arial Black,Arial,sans-serif" font-weight="900" font-size="60" fill="#93C5FD" letter-spacing="-1">Find</text>
    <text x="5" y="42" font-family="Arial Black,Arial,sans-serif" font-weight="900" font-size="60" fill="white" letter-spacing="-1">Card</text>

    <text x="-185" y="82" font-family="Courier New,monospace" font-size="14" fill="white" opacity="0.28" letter-spacing="7">••••  ••••  ••••</text>
    <text x="-185" y="105" font-family="Arial,sans-serif" font-size="11" font-weight="700" fill="white" opacity="0.85">FINDCARD PRO</text>
    <text x="-185" y="120" font-family="Arial,sans-serif" font-size="9.5" fill="#93C5FD" opacity="0.88">Apple Find My  ·  Bluetooth 5.1  ·  1.8mm  ·  IP67</text>

    <rect x="142" y="92" width="56" height="24" rx="5" fill="white" opacity="0.13"/>
    <text x="170" y="108.5" font-family="Arial,sans-serif" font-size="10" font-weight="600" fill="white" text-anchor="middle">MFi ✓</text>
  </g>

  <!-- ── Annotation Lines + Labels ── -->
  <!-- All in blue to match brand -->

  <!-- 1. Apple Find My (top center → up) -->
  <line x1="400" y1="116" x2="400" y2="60" stroke="#2563EB" stroke-width="1.5" stroke-dasharray="4,3"/>
  <circle cx="400" cy="116" r="3.5" fill="#2563EB"/>
  <rect x="312" y="28" width="176" height="30" rx="8" fill="#2563EB"/>
  <text x="400" y="48" font-family="Arial,Helvetica,sans-serif" font-size="12" font-weight="700" fill="white" text-anchor="middle">📡 Apple Find My</text>

  <!-- 2. EMV Chip (upper-left → left) -->
  <line x1="234" y1="162" x2="155" y2="148" stroke="#2563EB" stroke-width="1.5" stroke-dasharray="4,3"/>
  <circle cx="234" cy="162" r="3.5" fill="#2563EB"/>
  <rect x="28" y="130" width="126" height="34" rx="8" fill="#2563EB"/>
  <text x="91" y="145" font-family="Arial,Helvetica,sans-serif" font-size="11" font-weight="700" fill="white" text-anchor="middle">שבב EMV</text>
  <text x="91" y="159" font-family="Arial,Helvetica,sans-serif" font-size="10" fill="#BFDBFE" text-anchor="middle">מאובטח ומוצפן</text>

  <!-- 3. NFC / Wireless (left mid → left) -->
  <line x1="302" y1="174" x2="200" y2="210" stroke="#2563EB" stroke-width="1.5" stroke-dasharray="4,3"/>
  <circle cx="302" cy="174" r="3.5" fill="#2563EB"/>
  <rect x="28" y="194" width="170" height="34" rx="8" fill="#1E40AF"/>
  <text x="113" y="209" font-family="Arial,Helvetica,sans-serif" font-size="11" font-weight="700" fill="white" text-anchor="middle">טעינה אלחוטית Qi</text>
  <text x="113" y="223" font-family="Arial,Helvetica,sans-serif" font-size="10" fill="#BFDBFE" text-anchor="middle">NFC + Bluetooth 5.1</text>

  <!-- 4. Thickness arrow (right side → right) -->
  <!-- Vertical bracket on right edge of card -->
  <line x1="612" y1="190" x2="650" y2="190" stroke="#2563EB" stroke-width="1.5" stroke-dasharray="4,3"/>
  <circle cx="612" cy="190" r="3.5" fill="#2563EB"/>
  <!-- Bracket showing thinness -->
  <line x1="650" y1="178" x2="650" y2="202" stroke="#2563EB" stroke-width="2"/>
  <line x1="650" y1="178" x2="645" y2="178" stroke="#2563EB" stroke-width="2"/>
  <line x1="650" y1="202" x2="645" y2="202" stroke="#2563EB" stroke-width="2"/>
  <rect x="655" y="174" width="114" height="34" rx="8" fill="#2563EB"/>
  <text x="712" y="189" font-family="Arial,Helvetica,sans-serif" font-size="11" font-weight="700" fill="white" text-anchor="middle">עובי 1.8מ&quot;מ בלבד</text>
  <text x="712" y="203" font-family="Arial,Helvetica,sans-serif" font-size="10" fill="#BFDBFE" text-anchor="middle">כמו כרטיס אשראי</text>

  <!-- 5. Battery (bottom right → down-right) -->
  <line x1="520" y1="368" x2="580" y2="414" stroke="#2563EB" stroke-width="1.5" stroke-dasharray="4,3"/>
  <circle cx="520" cy="368" r="3.5" fill="#2563EB"/>
  <rect x="504" y="416" width="168" height="34" rx="8" fill="#1D4ED8"/>
  <text x="588" y="431" font-family="Arial,Helvetica,sans-serif" font-size="11" font-weight="700" fill="white" text-anchor="middle">🔋 8 חודשי סוללה</text>
  <text x="588" y="445" font-family="Arial,Helvetica,sans-serif" font-size="10" fill="#BFDBFE" text-anchor="middle">טעינה אלחוטית Qi</text>

  <!-- 6. IP67 (bottom left → down-left) -->
  <line x1="282" y1="368" x2="222" y2="414" stroke="#2563EB" stroke-width="1.5" stroke-dasharray="4,3"/>
  <circle cx="282" cy="368" r="3.5" fill="#2563EB"/>
  <rect x="92" y="416" width="130" height="34" rx="8" fill="#1D4ED8"/>
  <text x="157" y="431" font-family="Arial,Helvetica,sans-serif" font-size="11" font-weight="700" fill="white" text-anchor="middle">🌊 עמידות IP67</text>
  <text x="157" y="445" font-family="Arial,Helvetica,sans-serif" font-size="10" fill="#BFDBFE" text-anchor="middle">עד 1 מטר / 30 דקות</text>
</svg>
